<svg xmlns="http://www.w3.org/2000/svg" viewBox="0 0 100 100">
  <rect width="100" height="100" rx="22" fill="#6C63FF"/>
  <!-- Sun body -->
  <circle cx="50" cy="44" r="13" fill="white"/>
  <!-- Sun rays -->
  <line x1="50" y1="22" x2="50" y2="16" stroke="white" stroke-width="3.5" stroke-linecap="round"/>
  <line x1="50" y1="72" x2="50" y2="66" stroke="white" stroke-width="3.5" stroke-linecap="round"/>
  <line x1="28" y1="44" x2="22" y2="44" stroke="white" stroke-width="3.5" stroke-linecap="round"/>
  <line x1="78" y1="44" x2="72" y2="44" stroke="white" stroke-width="3.5" stroke-linecap="round"/>
  <line x1="34" y1="28" x2="30" y2="24" stroke="white" stroke-width="3.5" stroke-linecap="round"/>
  <line x1="66" y1="28" x2="70" y2="24" stroke="white" stroke-width="3.5" stroke-linecap="round"/>
  <line x1="34" y1="60" x2="30" y2="64" stroke="white" stroke-width="3.5" stroke-linecap="round"/>
  <line x1="66" y1="60" x2="70" y2="64" stroke="white" stroke-width="3.5" stroke-linecap="round"/>
  <!-- Checklist -->
  <rect x="29" y="64" width="42" height="26" rx="6" fill="white"/>
  <line x1="37" y1="72" x2="41" y2="76" stroke="#6C63FF" stroke-width="2.5" stroke-linecap="round"/>
  <line x1="41" y1="76" x2="47" y2="69" stroke="#6C63FF" stroke-width="2.5" stroke-linecap="round"/>
  <rect x="51" y="72" width="13" height="3" rx="1.5" fill="#6C63FF"/>
  <line x1="37" y1="82" x2="41" y2="86" stroke="#4ECDC4" stroke-width="2.5" stroke-linecap="round"/>
  <line x1="41" y1="86" x2="47" y2="79" stroke="#4ECDC4" stroke-width="2.5" stroke-linecap="round"/>
  <rect x="51" y="81" width="10" height="3" rx="1.5" fill="#C8C4F0"/>
</svg>
